<svg width="20" height="20" viewBox="0 0 20 20" fill="none" xmlns="http://www.w3.org/2000/svg">
<path d="M15.5288 3.52832C15.7891 3.2683 16.2109 3.2683 16.4712 3.52832C16.7315 3.78866 16.7315 4.21133 16.4712 4.47168L10.9438 9.99805L16.4741 15.5293C16.7345 15.7897 16.7345 16.2113 16.4741 16.4717C16.2138 16.7319 15.7921 16.732 15.5317 16.4717L10.0015 10.9414L4.47119 16.4717C4.21085 16.732 3.78916 16.732 3.52881 16.4717C3.26854 16.2113 3.2685 15.7896 3.52881 15.5293L9.05811 9.99805L3.53174 4.47168C3.2714 4.21133 3.27138 3.78866 3.53174 3.52832C3.7921 3.26805 4.21478 3.26799 4.4751 3.52832L10.0015 9.05566L15.5288 3.52832Z" fill="black" fill-opacity="0.25"/>
</svg>
