<svg width="20" height="20" viewBox="0 0 20 20" fill="none" xmlns="http://www.w3.org/2000/svg">
<rect width="16.6667" height="16.6667" rx="8.33333" transform="matrix(1 0 0 -1 1.6665 18.333)" fill="#0B78CB"/>
<path d="M9.91618 7.86719C10.4685 7.86719 10.9162 7.41947 10.9162 6.86719C10.9162 6.3149 10.4685 5.86719 9.91618 5.86719C9.36389 5.86719 8.91618 6.3149 8.91618 6.86719C8.91618 7.41947 9.36389 7.86719 9.91618 7.86719Z" fill="white"/>
<path d="M8.66618 8.6923C8.57413 8.6923 8.49951 8.76692 8.49951 8.85897V9.52563C8.49951 9.61768 8.57413 9.6923 8.66618 9.6923H9.25081C9.34286 9.6923 9.41748 9.76692 9.41748 9.85897V12.9945H8.50016C8.40812 12.9945 8.3335 13.0691 8.3335 13.1611V13.8278C8.3335 13.9198 8.40812 13.9945 8.50016 13.9945H11.5002C11.5922 13.9945 11.6668 13.9198 11.6668 13.8278V13.1611C11.6668 13.0691 11.5922 12.9945 11.5002 12.9945H10.9175V8.85897C10.9175 8.76692 10.8429 8.6923 10.7508 8.6923H8.66618Z" fill="white"/>
</svg>
