<svg width="24" height="24" viewBox="0 0 24 24" fill="none" xmlns="http://www.w3.org/2000/svg">
<path d="M20.7002 12.6797C21.2522 12.68 21.7001 13.1276 21.7002 13.6797V18.7197C21.7002 19.2015 21.4928 19.6473 21.1523 19.9629C20.8144 20.2758 20.3703 20.4393 19.9229 20.4395H4.37793C3.93034 20.4395 3.48655 20.276 3.14844 19.9629C2.80773 19.6473 2.59962 19.2017 2.59961 18.7197V13.6797C2.59971 13.1275 3.04836 12.6797 3.60059 12.6797C4.15259 12.68 4.60049 13.1276 4.60059 13.6797V18.4395H19.7002V13.6797C19.7003 13.1276 20.1482 12.6799 20.7002 12.6797ZM12.1504 2.59961C12.7023 2.59987 13.1502 3.04766 13.1504 3.59961V11.2461L15.7139 8.65723C16.1022 8.26478 16.7353 8.26129 17.1279 8.64941C17.5205 9.03785 17.5241 9.6709 17.1357 10.0635L12.8604 14.3838C12.8062 14.4384 12.7457 14.485 12.6816 14.5254C12.6396 14.5519 12.5958 14.5756 12.5498 14.5957C12.4249 14.6504 12.2894 14.6806 12.1504 14.6807C12.0826 14.6807 12.0156 14.6736 11.9502 14.6602C11.9406 14.6582 11.9314 14.6546 11.9219 14.6523C11.8678 14.6396 11.8147 14.624 11.7637 14.6025C11.6414 14.5513 11.5314 14.4766 11.4395 14.3838L7.16406 10.0635C6.77585 9.6709 6.77943 9.03781 7.17188 8.64941C7.56444 8.26116 8.19753 8.26478 8.58594 8.65723L11.1504 11.248V3.59961C11.1506 3.04749 11.5982 2.59961 12.1504 2.59961Z" fill="white"/>
</svg>
