<svg width="170" height="22" viewBox="0 0 170 22" fill="none" xmlns="http://www.w3.org/2000/svg">
<path d="M3.294 4.138C3.33 4.138 3.384 4.156 3.492 4.192C3.816 4.336 3.87 4.624 3.672 5.02C3.564 5.2 3.492 5.434 3.438 5.704C3.348 6.064 3.186 6.514 2.97 7.036C2.826 7.36 2.772 7.558 2.79 7.63C2.808 7.702 2.934 7.792 3.186 7.9C3.33 7.972 3.6 8.134 4.032 8.422C4.788 8.962 5.292 9.286 5.544 9.358C5.796 9.466 5.922 9.628 5.958 9.844C5.994 10.06 5.886 10.222 5.67 10.294C5.454 10.366 4.77 10.06 3.582 9.34C2.988 8.998 2.61 8.8 2.466 8.764C2.304 8.728 2.196 8.782 2.124 8.962C2.052 9.142 1.98 9.322 1.908 9.502C1.71 9.934 1.584 10.42 1.512 10.924C1.476 11.194 1.44 11.356 1.404 11.428C1.368 11.5 1.296 11.572 1.206 11.608C0.882 11.752 0.666 11.698 0.54 11.446C0.396 11.194 0.414 10.852 0.558 10.384C0.594 10.24 0.648 10.042 0.72 9.754C0.756 9.502 0.846 9.178 0.99 8.818C1.116 8.458 1.188 8.242 1.224 8.17C1.26 8.026 1.422 7.666 1.674 7.108C1.746 6.928 1.818 6.766 1.854 6.64C1.908 6.478 2.016 6.208 2.196 5.848C2.358 5.488 2.466 5.236 2.52 5.11C2.736 4.642 2.934 4.336 3.114 4.228C3.204 4.174 3.258 4.138 3.294 4.138ZM8.046 4.57C8.064 4.57 8.136 4.588 8.244 4.624C8.406 4.696 8.496 4.876 8.532 5.146C8.55 5.416 8.532 5.938 8.46 6.694C8.424 6.964 8.388 7.594 8.37 8.584C8.352 9.898 8.316 10.744 8.244 11.14C8.172 11.536 8.01 11.806 7.758 11.932C7.596 12.04 7.47 12.058 7.362 11.986C7.254 11.914 7.218 11.806 7.254 11.626C7.272 11.518 7.29 10.78 7.308 9.376C7.308 8.008 7.326 7.234 7.362 7.018C7.398 6.838 7.434 6.496 7.452 6.028C7.488 5.29 7.632 4.84 7.884 4.66C7.974 4.606 8.028 4.57 8.046 4.57ZM2.736 12.238C2.808 12.31 2.844 12.4 2.844 12.472C2.844 12.544 2.844 12.778 2.844 13.156C2.808 13.696 2.826 14.092 2.898 14.344C2.934 14.596 2.97 14.848 2.97 15.1C2.97 15.37 2.988 15.532 3.06 15.586C3.132 15.658 3.312 15.694 3.636 15.712C3.924 15.748 4.356 15.748 4.914 15.73C5.454 15.73 5.868 15.694 6.12 15.658C6.444 15.622 7.038 15.586 7.884 15.586C8.712 15.586 9.18 15.604 9.288 15.64C9.54 15.784 9.612 16 9.504 16.288C9.396 16.576 9.18 16.684 8.874 16.63C8.424 16.558 7.992 16.558 7.578 16.594C7.38 16.63 7.02 16.666 6.498 16.702C6.066 16.738 5.742 16.774 5.526 16.81C5.22 16.882 4.806 16.918 4.266 16.918C3.726 16.936 3.258 16.918 2.862 16.864C2.844 16.864 2.826 16.864 2.79 16.846C2.232 16.792 1.908 16.666 1.818 16.468C1.71 16.288 1.674 15.622 1.674 14.506V14.38C1.674 13.39 1.674 12.796 1.71 12.598C1.746 12.418 1.854 12.274 2.034 12.184C2.322 12.04 2.556 12.058 2.736 12.238ZM14.5725 4.372C15.7065 4.408 16.4085 4.48 16.6605 4.588C16.7145 4.624 16.9845 4.642 17.4705 4.642C17.9925 4.678 18.3345 4.732 18.4785 4.84C18.6225 4.948 18.6585 5.128 18.5865 5.416C18.5145 5.668 18.4425 6.028 18.4065 6.46C18.3705 6.748 18.3165 7.036 18.2625 7.342C18.1905 7.612 18.1365 8.008 18.1005 8.512C18.0285 9.124 17.9385 9.52 17.8485 9.7C17.7585 9.898 17.5965 10.006 17.3625 10.024C17.2365 10.042 17.1645 10.042 17.1285 10.024C17.0925 10.024 17.0565 9.988 17.0205 9.916C16.9665 9.844 16.9485 9.772 16.9485 9.7C16.9485 9.628 16.9845 9.34 17.0385 8.872C17.0925 8.386 17.1465 7.522 17.2185 6.298C17.2185 5.92 17.2185 5.704 17.1825 5.668C17.0925 5.578 16.3545 5.506 14.9505 5.452C14.2305 5.416 13.8165 5.398 13.6905 5.362C13.2405 5.254 12.9165 5.182 12.7365 5.128C12.5925 5.11 12.5205 5.02 12.5025 4.84C12.4665 4.66 12.5205 4.534 12.6465 4.462C12.7905 4.372 13.4205 4.336 14.5725 4.372ZM18.4965 10.186C18.7845 10.204 18.9645 10.24 19.0365 10.276C19.1805 10.42 19.1985 10.6 19.0545 10.816C18.9105 11.032 18.7305 11.14 18.4965 11.122C18.2805 11.122 18.1365 11.14 18.1005 11.212C18.0465 11.284 18.0105 11.482 18.0105 11.806C17.9745 12.256 17.9385 12.706 17.9025 13.174C17.7945 14.164 17.7945 14.938 17.8845 15.514C17.9205 15.802 17.9205 16.054 17.8845 16.252C17.8485 16.45 17.7945 16.594 17.7045 16.666C17.5965 16.756 17.4885 16.756 17.3625 16.684C17.1465 16.594 17.0385 16.45 17.0205 16.27C17.0205 16.27 17.0025 16.18 16.9665 16.018C16.9305 15.874 16.8945 15.748 16.8945 15.64C16.8225 15.37 16.8045 14.848 16.8045 14.092C16.8045 13.336 16.8585 12.76 16.9305 12.382C17.0385 11.662 17.0925 11.266 17.0565 11.194C17.0205 11.14 16.9305 11.122 16.7685 11.122C16.6065 11.122 16.4445 11.158 16.2645 11.212C16.0845 11.284 15.9405 11.302 15.8505 11.302C15.7605 11.302 15.6525 11.32 15.5265 11.356C15.4185 11.392 15.3645 11.428 15.3465 11.464C15.3285 11.518 15.2925 11.716 15.2565 12.04C15.2025 12.436 15.1845 12.94 15.2205 13.552C15.2565 14.182 15.3105 14.668 15.4185 15.01C15.5625 15.514 15.4905 15.856 15.2205 16.054C14.8605 16.306 14.6265 16.18 14.5185 15.676C14.4825 15.604 14.4465 15.406 14.3745 15.118C14.2665 14.704 14.2125 14.398 14.1945 14.2C14.1765 14.002 14.1765 13.552 14.1765 12.832C14.1765 11.914 14.1405 11.446 14.1045 11.428C14.0505 11.41 13.7445 11.41 13.1865 11.446C12.5205 11.5 11.9805 11.482 11.5845 11.374C11.3145 11.338 11.1345 11.266 11.0445 11.176C10.9365 11.086 10.9005 10.96 10.9005 10.798C10.9005 10.582 10.9725 10.456 11.1165 10.402C11.2605 10.348 11.5305 10.348 11.9625 10.384C12.3225 10.42 12.9165 10.438 13.7805 10.438C14.6445 10.438 15.3465 10.402 15.8865 10.366C16.2465 10.33 16.6965 10.312 17.2185 10.276C17.7225 10.258 17.9745 10.24 18.0105 10.204C18.0465 10.168 18.2085 10.168 18.4965 10.186ZM32.8537 5.974C33.0337 6.01 33.1597 6.064 33.1957 6.154C33.2317 6.262 33.2497 6.532 33.2497 6.982C33.2137 8.17 33.2137 9.394 33.2497 10.654C33.2857 11.914 33.3397 12.85 33.4297 13.462C33.5017 14.074 33.5197 14.488 33.4837 14.686C33.4477 14.902 33.3217 15.028 33.1057 15.1C32.9257 15.172 32.7637 15.154 32.6557 15.064C32.5477 14.992 32.4937 14.848 32.4937 14.668C32.4937 14.524 32.4577 14.272 32.4217 13.93C32.3317 13.354 32.2597 12.544 32.2237 11.518C32.1697 10.492 32.1517 9.592 32.1877 8.8C32.1877 8.008 32.2057 7.45 32.2237 7.108C32.2237 6.622 32.3317 6.28 32.5117 6.082C32.6017 6.01 32.7097 5.974 32.8537 5.974ZM27.1297 7.468C27.3097 7.468 27.4537 7.468 27.5257 7.504C27.5977 7.54 27.7417 7.558 27.9757 7.594C28.3537 7.666 28.6957 7.864 29.0197 8.206C29.3257 8.566 29.5597 8.998 29.7037 9.52C30.0097 10.744 29.9197 11.752 29.4517 12.544C28.9657 13.336 28.1737 13.786 27.0757 13.894C26.7517 13.93 26.5177 13.93 26.4097 13.912C26.2837 13.894 26.0857 13.822 25.8337 13.696C25.4017 13.516 25.0777 13.102 24.8797 12.436C24.6637 11.788 24.6457 11.104 24.8077 10.42C24.8617 10.168 24.9697 9.79 25.1497 9.286C25.3117 8.782 25.4197 8.476 25.4917 8.404C25.5277 8.35 25.7077 8.206 26.0497 7.972C26.3737 7.756 26.6077 7.594 26.7517 7.522C26.8237 7.486 26.9497 7.468 27.1297 7.468ZM27.1117 8.728C27.0577 8.728 27.0037 8.764 26.9317 8.836C26.6797 9.034 26.4817 9.25 26.3557 9.484C26.2297 9.736 26.0677 10.204 25.8517 10.906C25.7077 11.374 25.7077 11.842 25.8697 12.31C26.0317 12.778 26.2837 13.048 26.6437 13.102C26.8957 13.156 27.2197 13.084 27.6337 12.868C28.0477 12.652 28.3537 12.418 28.5337 12.13C28.7677 11.788 28.8757 11.32 28.8577 10.744C28.8397 10.168 28.6957 9.7 28.4257 9.34C28.2817 9.16 28.1737 9.052 28.0837 8.98C27.9757 8.926 27.8137 8.872 27.5797 8.818C27.3097 8.764 27.1477 8.728 27.1117 8.728ZM40.0538 3.922C40.0538 4.048 40.0718 4.12 40.1078 4.156C40.1438 4.192 40.2698 4.228 40.4498 4.264C40.7378 4.336 41.0438 4.48 41.3858 4.714C41.7278 4.966 41.9438 5.2 42.0518 5.416C42.1238 5.596 42.1418 5.812 42.1058 6.064C42.0698 6.316 41.9978 6.514 41.8898 6.622C41.8358 6.694 41.7458 6.838 41.6198 7.09C41.4578 7.414 41.3678 7.594 41.3318 7.63C41.2958 7.702 41.2778 7.756 41.2778 7.774C41.2778 7.81 41.3318 7.864 41.4398 7.936C41.5478 8.044 41.6018 8.332 41.6378 8.8C41.6738 9.268 41.6378 9.7 41.5658 10.096C41.5118 10.33 41.4758 10.474 41.4758 10.546C41.4758 10.6 41.5298 10.618 41.6738 10.618C41.8178 10.618 42.1418 10.6 42.6458 10.528C43.9418 10.42 44.6798 10.474 44.8238 10.708C45.0218 11.05 44.8418 11.266 44.2838 11.338C44.0678 11.374 43.7618 11.41 43.4018 11.428C42.7538 11.464 41.7638 11.554 40.4498 11.734C40.2158 11.77 39.5858 11.788 38.5778 11.824C37.6058 11.86 36.9758 11.878 36.6518 11.896C36.3638 11.914 36.1298 11.896 35.9138 11.86C35.8598 11.86 35.7698 11.86 35.6618 11.824C35.5538 11.806 35.4818 11.788 35.4458 11.77C35.1938 11.734 35.0138 11.626 34.9058 11.464C34.7978 11.302 34.8158 11.122 34.9418 10.942C34.9778 10.87 35.0318 10.834 35.0678 10.816C35.1038 10.798 35.2478 10.78 35.4638 10.78C37.1558 10.78 38.0378 10.744 38.0918 10.69C38.1098 10.672 38.1098 10.546 38.0918 10.33C38.0018 9.862 37.9838 9.412 38.0198 8.944C38.0558 8.494 38.1458 8.188 38.2898 8.026C38.3438 7.954 38.3798 7.918 38.3798 7.882C38.3798 7.846 38.3258 7.792 38.2358 7.684C37.9838 7.432 37.8398 7.072 37.8038 6.64C37.7498 6.208 37.7858 5.794 37.8938 5.38C38.0018 4.966 38.1818 4.588 38.4338 4.246C38.6858 3.904 38.9918 3.688 39.3338 3.598C39.8018 3.472 40.0538 3.58 40.0538 3.922ZM39.5138 4.912C39.4418 4.948 39.3338 5.074 39.2258 5.29C39.0998 5.542 38.9918 5.704 38.9018 5.812C38.6498 6.172 38.6498 6.514 38.9378 6.838C39.2078 7.162 39.5498 7.252 39.9818 7.108C40.1618 7.054 40.3418 6.946 40.5578 6.766C40.7738 6.604 40.9178 6.442 40.9898 6.298C41.1698 5.974 41.2058 5.722 41.0978 5.542C40.9718 5.362 40.6478 5.2 40.1258 5.02C39.8018 4.93 39.5858 4.894 39.5138 4.912ZM40.3598 8.026C40.2158 8.026 40.1078 8.044 40.0178 8.08C39.8918 8.116 39.7298 8.134 39.5138 8.152L39.1358 8.188V9.412V9.7C39.1358 10.258 39.1538 10.582 39.1898 10.672C39.2258 10.762 39.3878 10.798 39.6758 10.78C39.7298 10.78 39.7838 10.78 39.8198 10.762C40.1258 10.762 40.3058 10.726 40.3598 10.69C40.3958 10.654 40.4498 10.222 40.5218 9.394C40.5938 8.566 40.6298 8.134 40.5938 8.062C40.5578 8.044 40.4858 8.026 40.3598 8.026ZM40.7018 12.85C41.2418 12.922 41.6018 12.994 41.7818 13.084C42.0518 13.228 42.2498 13.426 42.3578 13.66C42.4658 13.912 42.5738 14.326 42.6638 14.902C42.7358 15.37 42.6278 15.82 42.3398 16.252C42.0518 16.702 41.6558 17.044 41.1518 17.296C40.8998 17.44 40.5398 17.512 40.0538 17.53C39.5498 17.566 39.1718 17.53 38.8838 17.44C38.4878 17.332 38.1998 17.098 37.9838 16.774C37.7678 16.45 37.6418 16.072 37.6418 15.676C37.6418 15.28 37.6958 14.866 37.8218 14.47C37.9298 14.074 38.1458 13.714 38.4518 13.408C38.7578 13.12 39.1178 12.922 39.5318 12.832C39.7658 12.796 40.1618 12.796 40.7018 12.85ZM40.6118 13.804C40.3598 13.804 40.1618 13.804 40.0538 13.822C39.6938 13.93 39.3698 14.2 39.0818 14.668C38.7938 15.136 38.6858 15.568 38.7578 15.928C38.8118 16.252 39.0458 16.468 39.4418 16.558C39.8378 16.648 40.2518 16.612 40.6838 16.432C41.1158 16.27 41.4398 16.018 41.6198 15.658C41.7638 15.37 41.7998 15.028 41.6918 14.668C41.5838 14.308 41.3858 14.038 41.1158 13.894C41.0258 13.858 40.8638 13.822 40.6118 13.804ZM52.999 4.192C53.053 4.192 53.143 4.21 53.269 4.246C53.413 4.318 53.485 4.426 53.521 4.588C53.539 4.768 53.503 4.948 53.395 5.164C53.323 5.29 53.251 5.542 53.143 5.938C53.017 6.352 52.891 6.766 52.747 7.198C52.621 7.594 52.567 7.828 52.567 7.9C52.567 7.99 52.657 8.08 52.819 8.152C52.927 8.224 53.143 8.404 53.485 8.71C53.845 9.052 54.133 9.286 54.367 9.43C54.601 9.574 54.889 9.7 55.249 9.808C55.645 9.934 55.789 10.132 55.663 10.402C55.483 10.726 55.141 10.816 54.601 10.636C54.061 10.474 53.449 10.096 52.765 9.502C52.621 9.376 52.495 9.286 52.405 9.214C52.315 9.142 52.243 9.106 52.171 9.088C52.099 9.088 52.063 9.106 52.027 9.142C51.991 9.178 51.973 9.25 51.973 9.322C51.937 9.448 51.901 9.628 51.829 9.88C51.739 10.132 51.685 10.492 51.649 10.924C51.595 11.374 51.541 11.662 51.469 11.788C51.397 11.914 51.253 11.968 51.037 11.968C50.821 11.968 50.659 11.878 50.569 11.68C50.479 11.482 50.461 11.212 50.533 10.87C50.569 10.618 50.623 10.366 50.659 10.132C50.695 9.826 50.785 9.466 50.911 9.034C51.163 8.224 51.451 7.378 51.793 6.514C51.919 6.19 52.009 5.956 52.081 5.776C52.315 5.056 52.549 4.57 52.765 4.336C52.855 4.264 52.927 4.21 52.999 4.192ZM58.615 4.948C58.759 4.948 58.867 5.002 58.939 5.074C58.975 5.146 59.011 5.326 59.047 5.614C59.065 5.902 59.065 6.19 59.047 6.478C59.029 6.676 59.011 7 58.975 7.468C58.939 7.864 58.903 8.458 58.885 9.286C58.831 10.294 58.777 10.942 58.705 11.23C58.633 11.536 58.507 11.752 58.309 11.86C58.129 11.968 57.985 11.986 57.913 11.914C57.823 11.842 57.805 11.698 57.859 11.464C57.877 11.284 57.877 10.888 57.877 10.258C57.859 9.682 57.859 9.214 57.859 8.836C57.841 8.548 57.805 8.386 57.769 8.332C57.733 8.296 57.589 8.278 57.355 8.314C56.707 8.404 56.077 8.458 55.483 8.458C54.889 8.476 54.547 8.458 54.439 8.386C54.259 8.278 54.169 8.098 54.187 7.882C54.187 7.666 54.295 7.522 54.493 7.486C54.583 7.468 55.123 7.432 56.113 7.36C57.247 7.306 57.841 7.252 57.895 7.18C57.931 7.144 57.967 6.982 58.003 6.658C58.039 6.352 58.075 6.064 58.075 5.794C58.075 5.416 58.147 5.164 58.309 5.038C58.381 4.966 58.471 4.948 58.615 4.948ZM52.981 12.31C53.017 12.292 53.089 12.292 53.233 12.31C53.467 12.346 53.611 12.418 53.665 12.544C53.719 12.688 53.719 12.94 53.665 13.318C53.629 13.534 53.647 13.894 53.719 14.398C53.773 14.902 53.809 15.226 53.827 15.406C53.827 15.586 53.899 15.694 54.007 15.712C54.115 15.748 54.511 15.748 55.159 15.73C55.843 15.73 56.365 15.694 56.689 15.658C57.049 15.622 57.553 15.604 58.201 15.604C58.849 15.604 59.227 15.64 59.317 15.676C59.497 15.838 59.587 16 59.605 16.18C59.605 16.36 59.533 16.504 59.371 16.612C59.191 16.72 58.993 16.738 58.777 16.666C58.615 16.63 58.417 16.612 58.183 16.612C57.103 16.702 56.329 16.774 55.879 16.828C55.429 16.9 54.871 16.936 54.223 16.9C53.575 16.882 53.161 16.828 52.981 16.72C52.837 16.648 52.729 16.486 52.675 16.198C52.621 15.928 52.585 15.334 52.549 14.416C52.513 13.696 52.495 13.228 52.531 13.012C52.567 12.796 52.657 12.616 52.801 12.454C52.873 12.382 52.945 12.328 52.981 12.31ZM63.7376 3.418C63.8456 3.49 63.9176 3.598 63.9356 3.76C63.9536 3.922 63.9176 4.102 63.8456 4.318C63.7556 4.534 63.6656 4.768 63.5936 5.038C63.4856 5.416 63.3416 5.83 63.1796 6.262C63.0176 6.694 62.9456 6.964 62.9456 7.072C62.9456 7.18 63.0176 7.252 63.1616 7.324C63.3596 7.432 63.8816 7.81 64.7456 8.494C64.9796 8.692 65.1956 8.854 65.4116 8.998C65.6996 9.196 65.8436 9.358 65.8796 9.484C65.8976 9.628 65.7896 9.736 65.5736 9.826C65.4476 9.88 65.1776 9.808 64.7816 9.61C64.3676 9.43 63.9896 9.196 63.6656 8.944C62.8736 8.368 62.4596 8.17 62.3876 8.35C62.2076 8.944 62.1176 9.322 62.0816 9.466C62.0456 9.628 62.0456 9.862 62.0456 10.15C62.0276 10.6 61.9916 10.888 61.9376 11.014C61.8656 11.158 61.7396 11.212 61.5596 11.212C61.2536 11.212 61.0556 11.05 60.9836 10.69C60.9116 10.33 60.9296 9.826 61.0736 9.16C61.1996 8.512 61.4336 7.738 61.7936 6.856C61.8296 6.766 61.9016 6.568 62.0096 6.262C62.1176 5.956 62.2076 5.74 62.2616 5.614C62.4056 5.182 62.5316 4.876 62.6036 4.714C62.7116 4.498 62.7836 4.336 62.8196 4.246C62.9816 3.85 63.1616 3.58 63.3596 3.472C63.5036 3.382 63.6296 3.364 63.7376 3.418ZM68.1296 3.868C68.2376 3.904 68.3276 3.994 68.3996 4.102C68.4356 4.174 68.4176 4.642 68.3636 5.506C68.3096 6.406 68.2916 6.892 68.3276 6.928C68.3636 7.036 68.7956 7.036 69.6236 6.91C69.9476 6.856 70.1636 6.82 70.2356 6.82C70.4156 6.784 70.5236 6.73 70.5596 6.658C70.5776 6.586 70.5956 6.316 70.6136 5.812C70.6136 5.236 70.6316 4.876 70.7036 4.714C70.7396 4.588 70.8116 4.462 70.9196 4.354C71.0276 4.246 71.1176 4.174 71.1896 4.174C71.2616 4.174 71.3516 4.21 71.4416 4.264C71.5316 4.318 71.5856 4.372 71.6036 4.426C71.6216 4.552 71.6396 4.786 71.6396 5.11C71.6396 5.452 71.6396 5.704 71.6216 5.884C71.5856 6.172 71.5676 6.784 71.5316 7.684C71.4956 8.728 71.4416 9.448 71.3696 9.808C71.2976 10.186 71.1896 10.42 71.0456 10.492C70.9196 10.564 70.8296 10.564 70.7576 10.51C70.6316 10.438 70.5596 10.312 70.5236 10.132C70.4876 9.952 70.4876 9.556 70.4876 8.908V7.756H70.2536C69.8576 7.774 69.2276 7.864 68.3636 8.044C68.2556 8.08 68.2196 8.26 68.2196 8.584C68.2196 8.908 68.2916 9.268 68.3996 9.664C68.5436 10.276 68.4536 10.636 68.0936 10.726C67.9316 10.762 67.8236 10.744 67.7516 10.672C67.6796 10.6 67.5896 10.366 67.4996 10.006C67.2116 8.998 67.1036 7.774 67.1756 6.298C67.2476 4.84 67.4636 4.03 67.8056 3.868C67.9136 3.832 68.0216 3.832 68.1296 3.868ZM67.2476 12.004C67.2836 12.004 67.3016 11.986 67.3376 11.986L67.3736 11.968C67.4096 11.968 67.5896 11.986 67.9136 12.058C68.2376 12.13 68.4716 12.184 68.5976 12.22C69.1376 12.382 69.5516 12.67 69.8576 13.084C70.1636 13.498 70.3076 13.966 70.3076 14.506C70.2896 15.046 70.1096 15.55 69.7676 16.018C69.4076 16.522 68.9936 16.918 68.5436 17.206C68.0756 17.494 67.6436 17.638 67.2296 17.674C66.7976 17.71 66.4016 17.602 66.0416 17.368C65.6816 17.152 65.3936 16.792 65.2136 16.324C65.1416 16.144 65.0876 15.91 65.0696 15.586C65.0516 15.262 65.0696 15.01 65.1236 14.794C65.1596 14.614 65.1956 14.434 65.2316 14.254C65.3036 13.642 65.4836 13.156 65.8076 12.832C65.9156 12.724 66.1316 12.58 66.4736 12.364C66.7976 12.166 67.0316 12.04 67.1576 12.004C67.1936 12.004 67.2116 12.004 67.2476 12.004ZM67.1936 13.426C66.8696 13.678 66.5816 14.146 66.3296 14.794C65.9156 15.874 66.1676 16.522 67.0676 16.738C67.3196 16.81 67.6256 16.738 68.0216 16.486C68.3996 16.234 68.7236 15.928 68.9936 15.55C69.2636 15.19 69.3896 14.866 69.3536 14.578C69.3176 14.326 69.1736 14.056 68.9576 13.768C68.7416 13.48 68.5256 13.3 68.3276 13.228C67.8956 13.12 67.5176 13.174 67.1936 13.426ZM73.5013 3.4C73.5373 3.4 73.6273 3.4 73.7353 3.436C73.8793 3.49 73.9513 3.598 73.9873 3.778C74.0233 3.958 74.0413 4.48 74.0773 5.326C74.1133 7.378 74.1673 8.44 74.2393 8.494C74.3293 8.602 75.5893 8.548 78.0193 8.332C78.3973 8.296 78.6493 8.404 78.7933 8.638C78.8833 8.818 78.8113 8.98 78.5773 9.16C78.3253 9.34 78.0193 9.466 77.6233 9.502C77.5153 9.52 77.3713 9.538 77.1913 9.574C76.9933 9.61 76.8673 9.61 76.8313 9.61C76.5973 9.646 76.1653 9.664 75.5353 9.664C74.8873 9.664 74.4193 9.7 74.0953 9.736C73.6813 9.79 73.4293 9.772 73.3573 9.664C73.2673 9.574 73.1953 9.232 73.1593 8.656C73.0333 7.324 72.9793 6.19 73.0153 5.218C73.0513 4.264 73.1413 3.706 73.3213 3.526C73.3933 3.454 73.4473 3.4 73.5013 3.4ZM80.8813 3.706C81.0073 3.85 81.0253 4.498 80.9533 5.65C80.9173 6.1 80.8813 6.622 80.8633 7.216C80.8633 7.324 80.8453 7.486 80.8453 7.666C80.7733 9.088 80.7193 9.916 80.6833 10.168C80.6473 10.42 80.5573 10.6 80.4133 10.672L80.3773 10.69C80.1613 10.816 79.9993 10.816 79.8553 10.69C79.8013 10.654 79.7833 10.384 79.7833 9.844C79.7833 9.304 79.8013 8.764 79.8373 8.188C79.8553 7.684 79.8913 6.946 79.9273 5.938C79.9453 5.038 79.9813 4.426 80.0533 4.12C80.1073 3.814 80.2153 3.634 80.3593 3.562C80.5393 3.49 80.7193 3.544 80.8813 3.706ZM78.9553 11.932C79.2433 12.004 79.5133 12.004 79.7653 11.95C80.2693 11.842 80.5933 11.86 80.7733 12.04C80.9353 12.22 80.9533 12.58 80.8273 13.084C80.7553 13.372 80.7193 13.678 80.6833 14.002C80.6293 14.38 80.5933 14.668 80.5753 14.866C80.4673 15.712 80.4493 16.216 80.4853 16.378C80.5213 16.54 80.7193 16.666 81.0613 16.738C81.2053 16.774 81.2773 16.81 81.2773 16.846C81.2773 16.9 81.1153 17.026 80.7913 17.206C80.5033 17.386 80.2693 17.494 80.1253 17.53C79.9633 17.584 79.7293 17.62 79.4413 17.638C79.0633 17.674 78.5413 17.674 77.8753 17.638C77.2093 17.602 76.7233 17.566 76.4353 17.494C76.1113 17.44 75.7873 17.404 75.4993 17.368C75.1213 17.35 74.8513 17.278 74.7073 17.17C74.5633 17.062 74.4553 16.846 74.4193 16.522C74.3653 16.252 74.3293 16.036 74.2933 15.892C74.2393 15.604 74.2033 15.28 74.1673 14.92C74.0953 14.344 74.0413 13.948 74.0413 13.768C73.9513 13.084 73.9873 12.616 74.1493 12.346C74.2933 12.076 74.5813 12.004 74.9773 12.148C75.0853 12.184 75.2833 12.184 75.6073 12.13C75.8773 12.076 76.2373 12.022 76.6873 11.95C77.5873 11.842 78.3433 11.842 78.9553 11.932ZM78.2893 12.832C77.5873 12.868 76.9753 12.922 76.4353 13.03C76.2913 13.066 76.0573 13.12 75.7513 13.156C75.4273 13.228 75.2293 13.282 75.1933 13.318C75.1573 13.354 75.1393 13.552 75.1573 13.894C75.1573 14.236 75.1933 14.506 75.2473 14.722C75.2653 14.848 75.2833 15.118 75.3193 15.532C75.3373 15.856 75.3733 16.072 75.4093 16.162C75.4453 16.27 75.4993 16.324 75.6073 16.342C75.8413 16.414 76.4893 16.45 77.5693 16.486C78.6493 16.522 79.2073 16.504 79.2613 16.45C79.3333 16.378 79.3873 15.784 79.4413 14.704C79.4773 13.624 79.4773 13.03 79.4053 12.904C79.3513 12.832 78.9733 12.796 78.2893 12.832ZM87.9141 3.454C88.0221 3.508 88.1121 3.616 88.1841 3.796C88.2921 4.048 88.4541 4.174 88.7061 4.174C88.9221 4.174 89.2281 4.354 89.5881 4.678C89.9481 5.02 90.1641 5.326 90.2541 5.614C90.3081 5.794 90.2541 6.064 90.1101 6.406C89.9661 6.748 89.7681 7.018 89.5521 7.198C89.3361 7.378 89.0481 7.54 88.6521 7.684C88.2561 7.828 87.9141 7.882 87.5901 7.882C87.3741 7.882 87.2301 7.864 87.1581 7.828C87.0861 7.792 86.9241 7.666 86.6721 7.45C86.4561 7.27 86.2941 7.126 86.2221 6.982C86.1501 6.856 86.0601 6.604 85.9521 6.244C85.8441 5.92 85.8441 5.488 85.9881 4.948C86.1141 4.408 86.2941 4.066 86.5281 3.886C86.8701 3.634 87.1761 3.472 87.4281 3.436C87.6441 3.4 87.8061 3.418 87.9141 3.454ZM87.5901 4.732C87.4821 4.786 87.3561 4.93 87.2301 5.182C87.1221 5.398 87.0501 5.542 86.9781 5.614C86.8701 5.758 86.8161 5.938 86.8521 6.154C86.8881 6.37 86.9601 6.55 87.1041 6.676C87.2661 6.82 87.5001 6.91 87.8061 6.91C88.1121 6.91 88.3461 6.838 88.5261 6.694C88.5621 6.658 88.6701 6.586 88.8141 6.514C88.9761 6.424 89.1201 6.28 89.2281 6.064C89.3361 5.866 89.3721 5.704 89.3361 5.578C89.2821 5.47 89.1741 5.326 88.9941 5.182C88.8141 5.038 88.6701 4.966 88.5261 4.93C88.3461 4.894 88.2021 4.858 88.0761 4.786C87.8601 4.696 87.6981 4.678 87.5901 4.732ZM92.0541 9.142C92.4141 9.16 92.6121 9.196 92.6661 9.232C92.7561 9.322 92.7921 9.448 92.7741 9.61C92.7561 9.772 92.7021 9.88 92.5941 9.916C92.3781 10.006 92.2161 10.06 92.1081 10.078C92.0001 10.114 91.7841 10.114 91.4781 10.114C91.0101 10.114 90.4701 10.15 89.8581 10.222C89.1741 10.294 88.4361 10.348 87.6441 10.348C86.7801 10.366 86.1141 10.384 85.6461 10.42C84.6921 10.474 84.0621 10.474 83.7381 10.42C83.6121 10.402 83.4321 10.366 83.1981 10.33C82.9821 10.33 82.8201 10.276 82.7481 10.186C82.6581 10.114 82.6221 9.988 82.6221 9.808C82.6221 9.592 82.6761 9.448 82.8021 9.412C82.9101 9.376 83.2881 9.358 83.9181 9.376C84.6021 9.394 85.2321 9.376 85.8441 9.34C86.4021 9.304 87.2841 9.286 88.5081 9.268C89.6961 9.268 90.3261 9.25 90.4161 9.214C90.5241 9.196 90.7401 9.178 91.0281 9.142C91.3521 9.124 91.6941 9.124 92.0541 9.142ZM88.5801 11.338C89.3361 11.374 89.8041 11.41 89.9841 11.446C90.1641 11.5 90.2541 11.644 90.2901 11.86C90.3261 12.094 90.2721 12.364 90.1641 12.688C90.0561 12.958 90.0021 13.138 90.0021 13.228C89.9841 13.318 90.0021 13.408 90.0561 13.48C90.3081 14.056 89.9661 14.434 89.0121 14.578C88.5621 14.65 88.0041 14.668 87.3561 14.632C87.0861 14.632 86.9241 14.65 86.8881 14.686C86.8521 14.74 86.7981 14.956 86.7621 15.334C86.7621 15.388 86.7441 15.46 86.7441 15.532C86.6721 16.072 86.6541 16.396 86.6721 16.468C86.6901 16.558 86.8161 16.594 87.0321 16.594H87.0861C87.5001 16.594 88.0761 16.54 88.8141 16.414C89.4801 16.306 89.9661 16.252 90.2721 16.288C90.5781 16.324 90.7401 16.45 90.7401 16.648C90.7401 16.72 90.6861 16.81 90.5781 16.918C90.4701 17.026 90.3801 17.08 90.3081 17.08C89.9481 17.152 89.4981 17.26 88.9941 17.386C88.4541 17.53 87.8781 17.638 87.2841 17.674C86.6901 17.728 86.2941 17.71 86.0961 17.62C85.9161 17.548 85.7721 17.296 85.6821 16.9C85.5921 16.504 85.5921 16.036 85.6641 15.514C85.7001 15.136 85.7181 14.902 85.7181 14.812C85.7001 14.74 85.6281 14.668 85.5201 14.596C85.2861 14.506 85.1781 14.344 85.1781 14.128C85.1781 13.912 85.3041 13.768 85.5561 13.678C85.8081 13.57 86.4021 13.552 87.3381 13.624C87.7701 13.66 88.1301 13.642 88.4361 13.57C88.7421 13.498 88.9041 13.408 88.9041 13.282C88.9041 13.21 88.9401 13.048 89.0121 12.814C89.0121 12.796 89.0121 12.76 89.0301 12.724C89.0841 12.544 89.0661 12.436 88.9941 12.4C88.9221 12.382 88.6161 12.382 88.0761 12.418C87.9681 12.418 87.8781 12.436 87.8241 12.436C87.1401 12.49 86.5821 12.508 86.1501 12.49C85.8981 12.49 85.7361 12.454 85.6461 12.382C85.5561 12.328 85.5201 12.22 85.5201 12.04C85.5201 11.824 85.6101 11.662 85.8081 11.554C86.0061 11.446 86.3661 11.374 86.8881 11.338C87.2481 11.32 87.8061 11.32 88.5801 11.338ZM102.909 4.786C102.981 4.894 103.125 4.966 103.341 5.02C103.773 5.182 104.115 5.326 104.331 5.47C104.547 5.614 104.745 5.812 104.907 6.046C105.141 6.442 105.231 6.82 105.195 7.18C105.141 7.558 104.997 7.9 104.745 8.188C104.493 8.476 104.151 8.728 103.683 8.908C103.215 9.088 102.711 9.196 102.153 9.214C101.613 9.232 101.145 8.998 100.749 8.494C100.353 8.008 100.209 7.468 100.281 6.874C100.389 5.974 100.731 5.344 101.307 5.002C101.649 4.786 101.883 4.66 102.009 4.606C102.387 4.48 102.693 4.534 102.909 4.786ZM102.153 5.92C102.009 5.992 101.811 6.262 101.595 6.73C101.343 7.198 101.253 7.558 101.307 7.792C101.361 8.026 101.577 8.188 101.937 8.26C102.189 8.332 102.423 8.332 102.657 8.278C102.873 8.242 103.161 8.116 103.521 7.9C104.097 7.576 104.349 7.234 104.241 6.838C104.133 6.442 103.737 6.154 103.053 5.974C102.585 5.866 102.297 5.848 102.153 5.92ZM108.597 6.01C108.669 6.064 108.723 6.226 108.741 6.514C108.741 6.802 108.741 7.45 108.723 8.422C108.687 9.574 108.669 10.852 108.705 12.256C108.741 13.768 108.741 14.668 108.741 14.938C108.741 15.208 108.723 15.388 108.687 15.46C108.579 15.694 108.417 15.784 108.183 15.748C107.949 15.712 107.805 15.568 107.733 15.316C107.661 15.082 107.607 14.362 107.571 13.138C107.535 11.914 107.553 10.96 107.607 10.24C107.643 9.646 107.661 8.89 107.697 7.954C107.697 7.09 107.733 6.55 107.769 6.37C107.805 6.19 107.895 6.064 108.039 5.956C108.219 5.848 108.399 5.866 108.597 6.01ZM105.267 10.528C105.537 10.528 105.699 10.546 105.735 10.546C105.843 10.618 105.915 10.726 105.933 10.87C105.951 11.032 105.915 11.158 105.825 11.23C105.609 11.428 105.213 11.554 104.655 11.59C103.917 11.662 103.521 11.77 103.449 11.914C103.359 12.112 103.305 12.652 103.269 13.516C103.233 14.398 103.233 14.92 103.305 15.082C103.503 15.514 103.485 15.928 103.251 16.306C103.017 16.63 102.783 16.666 102.549 16.432C102.351 16.252 102.243 15.766 102.207 14.974C102.171 14.182 102.207 13.3 102.351 12.292C102.387 12.076 102.387 11.95 102.369 11.914C102.351 11.878 102.243 11.878 102.045 11.878C101.847 11.878 101.667 11.896 101.487 11.914C101.235 11.95 100.857 11.968 100.317 11.968C99.7768 11.968 99.3808 11.95 99.1648 11.914C98.8588 11.878 98.6428 11.806 98.5348 11.698C98.4268 11.608 98.3728 11.464 98.3728 11.248C98.3728 11.05 98.4628 10.924 98.6608 10.87C98.8408 10.834 99.2368 10.834 99.8308 10.888C100.173 10.924 100.533 10.924 100.911 10.888C101.289 10.852 101.721 10.816 102.225 10.78C103.143 10.744 103.953 10.654 104.673 10.528C104.781 10.528 104.979 10.528 105.267 10.528ZM114.841 3.994C114.985 4.066 114.985 4.246 114.877 4.516C114.787 4.714 114.661 4.876 114.481 4.984C114.301 5.092 114.013 5.2 113.617 5.29C113.257 5.38 112.753 5.434 112.087 5.434C111.403 5.452 111.007 5.416 110.863 5.344C110.647 5.236 110.539 5.092 110.539 4.912C110.539 4.732 110.647 4.57 110.881 4.462C111.007 4.408 111.313 4.372 111.817 4.372C112.573 4.372 113.311 4.264 114.031 4.048C114.427 3.94 114.697 3.922 114.841 3.994ZM118.351 4.552C118.495 4.552 118.621 4.606 118.693 4.696C118.801 4.822 118.801 5.398 118.711 6.424C118.603 7.468 118.603 8.098 118.675 8.314C118.711 8.404 118.747 8.458 118.819 8.476C118.891 8.494 119.017 8.476 119.197 8.44C119.449 8.404 119.773 8.422 120.133 8.476C120.493 8.53 120.691 8.602 120.745 8.674C120.781 8.746 120.781 8.818 120.781 8.926C120.781 9.034 120.763 9.106 120.727 9.142C120.655 9.25 120.565 9.304 120.475 9.322C120.385 9.358 120.187 9.376 119.881 9.376C119.125 9.376 118.747 9.448 118.747 9.574C118.747 9.592 118.729 9.628 118.729 9.7C118.729 9.772 118.711 9.88 118.711 10.024C118.693 10.168 118.693 10.276 118.693 10.384C118.639 10.942 118.585 11.302 118.531 11.446C118.477 11.608 118.369 11.734 118.189 11.806C118.009 11.896 117.865 11.878 117.757 11.752C117.649 11.626 117.595 11.41 117.631 11.122C117.631 10.906 117.613 10.564 117.577 10.114C117.469 9.034 117.469 7.918 117.559 6.748C117.649 5.578 117.793 4.894 118.009 4.678C118.081 4.606 118.207 4.552 118.351 4.552ZM114.823 6.856C114.859 7.036 114.787 7.162 114.643 7.234C114.499 7.306 114.211 7.342 113.797 7.342C113.365 7.378 113.041 7.396 112.825 7.432C111.889 7.612 111.295 7.738 111.043 7.792C110.755 7.864 110.485 7.774 110.269 7.522C110.053 7.288 110.017 7.054 110.197 6.838C110.251 6.766 110.413 6.73 110.683 6.694C111.907 6.604 112.789 6.514 113.365 6.424C114.265 6.298 114.751 6.442 114.823 6.856ZM112.735 8.026C112.789 8.026 112.861 8.134 112.951 8.314C113.023 8.494 113.221 8.584 113.527 8.584C113.563 8.584 113.815 8.746 114.283 9.034C114.427 9.142 114.571 9.358 114.697 9.646C114.805 9.934 114.859 10.186 114.823 10.402C114.787 10.6 114.733 10.834 114.625 11.122C114.517 11.41 114.445 11.59 114.373 11.662C114.301 11.734 114.121 11.878 113.833 12.058C113.545 12.238 113.383 12.328 113.347 12.328C113.311 12.328 113.257 12.364 113.167 12.436L113.005 12.526L113.185 12.706C113.275 12.814 113.329 12.904 113.347 12.994C113.365 13.084 113.383 13.336 113.401 13.75V13.876C113.437 14.884 113.491 15.46 113.527 15.622C113.563 15.802 113.671 15.892 113.869 15.928H113.887C114.013 15.946 114.373 15.946 114.985 15.928C115.579 15.91 116.011 15.892 116.281 15.856C117.001 15.784 117.559 15.712 117.991 15.676C118.405 15.64 118.747 15.64 119.017 15.658C119.287 15.676 119.467 15.712 119.557 15.784C119.647 15.856 119.683 15.964 119.683 16.09C119.683 16.27 119.611 16.396 119.485 16.468C119.341 16.54 119.107 16.576 118.783 16.576C118.459 16.576 118.063 16.612 117.631 16.684C117.055 16.792 116.713 16.846 116.641 16.846C116.389 16.882 116.155 16.936 115.975 16.972C115.399 17.134 114.715 17.188 113.923 17.152C113.131 17.116 112.663 17.026 112.555 16.846C112.483 16.756 112.411 16.504 112.339 16.072C112.267 15.658 112.249 15.424 112.285 15.352C112.285 15.334 112.285 15.01 112.267 14.38C112.231 13.858 112.231 13.516 112.267 13.336C112.285 13.156 112.357 12.976 112.501 12.76C112.591 12.634 112.627 12.544 112.591 12.508C112.555 12.472 112.429 12.436 112.213 12.436C111.853 12.436 111.547 12.328 111.277 12.094C111.007 11.878 110.809 11.59 110.701 11.248C110.593 10.924 110.557 10.546 110.611 10.114C110.647 9.7 110.791 9.304 111.025 8.926C111.115 8.782 111.205 8.692 111.277 8.656C111.349 8.62 111.457 8.602 111.601 8.602C111.745 8.638 111.853 8.62 111.961 8.584C112.051 8.548 112.195 8.44 112.393 8.26C112.555 8.098 112.663 8.026 112.735 8.026ZM112.303 9.664C112.051 9.808 111.835 10.078 111.655 10.474C111.547 10.726 111.547 10.978 111.691 11.194C111.835 11.428 112.033 11.536 112.321 11.536C112.627 11.536 112.951 11.392 113.293 11.104C113.635 10.816 113.815 10.528 113.815 10.258C113.815 10.168 113.743 10.06 113.617 9.934C113.473 9.808 113.329 9.718 113.185 9.646C112.825 9.538 112.537 9.538 112.303 9.664Z" fill="#653524"/>
<path d="M126.346 10.4277L130.686 8.00245C130.724 7.98037 130.766 7.96933 130.807 7.95461V5.15396C130.807 3.41321 132.268 2 134.067 2H166.741C168.54 2.00368 170 3.41689 170 5.15764V16.846C170 18.5868 168.54 20 166.741 20H134.063C132.264 20 130.804 18.5868 130.804 16.846V14.0454C130.762 14.0307 130.724 14.0196 130.682 13.9975L126.342 11.5723C125.886 11.3183 125.886 10.6817 126.342 10.4277H126.346Z" fill="#85462F"/>
<path d="M145.314 10.5205V11.7344H142.511V13.6895H146.271V14.9463H137.258V13.6895H140.985V11.7344H138.289V6.83594H145.25V8.06055H139.836V10.5205H145.314ZM155.767 11.6377V12.8945H151.996V16.042H150.46V12.8945H146.754V11.6377H155.767ZM151.233 6.48145C153.36 6.48145 154.864 7.3623 154.864 8.7373C154.864 10.0908 153.36 10.9502 151.233 10.9502C149.106 10.9502 147.613 10.0908 147.624 8.7373C147.613 7.3623 149.106 6.48145 151.233 6.48145ZM151.233 7.70605C149.977 7.7168 149.214 8.06055 149.214 8.7373C149.214 9.39258 149.977 9.73633 151.233 9.73633C152.501 9.73633 153.264 9.39258 153.264 8.7373C153.264 8.06055 152.501 7.7168 151.233 7.70605ZM161.567 7.04004V13.7217H156.733V7.04004H161.567ZM158.28 8.24316V12.4971H160.063V8.24316H158.28ZM164.554 6.16992V16.0527H162.996V6.16992H164.554Z" fill="white"/>
</svg>
