<svg width="14" height="14" viewBox="0 0 14 14" fill="none" xmlns="http://www.w3.org/2000/svg">
<path d="M8.41333 8.61133C8.73539 8.50754 9.13824 8.51154 9.46802 8.73438C10.0298 9.11442 10.4099 9.95576 9.96997 10.8486C9.84467 11.1028 9.60831 11.3965 9.29028 11.6689C9.45463 11.7765 9.60964 11.8438 9.75708 11.8838C10.0283 11.9574 10.3057 11.9504 10.6155 11.8994C11.1879 11.8051 11.7068 11.4157 11.9211 11.0977C12.0291 10.9379 12.2531 10.9013 12.4221 11.0156C12.591 11.13 12.6409 11.3518 12.5334 11.5117C12.2235 11.9717 11.5472 12.4749 10.7727 12.6025C10.4091 12.6624 10.0138 12.6832 9.5979 12.5703C9.28937 12.4865 8.98703 12.333 8.68677 12.0938C8.6109 12.1373 8.53282 12.1796 8.45239 12.2188C7.69747 12.5861 6.7096 12.7622 5.63794 12.3555C5.44792 12.2832 5.34498 12.0764 5.40845 11.8936C5.47205 11.7106 5.67819 11.6212 5.86841 11.6934C6.704 12.0104 7.48074 11.8799 8.10278 11.5771C8.11722 11.5701 8.13151 11.5619 8.14575 11.5547C7.51441 10.7703 7.39735 9.87611 7.63306 9.30176C7.77701 8.95143 8.08755 8.71633 8.41333 8.61133ZM8.68872 1.74902C8.9551 1.74919 9.21902 1.80326 9.46509 1.90527C9.71113 2.00738 9.93597 2.15629 10.1243 2.34473C10.3125 2.53321 10.4619 2.75777 10.5637 3.00391C10.6655 3.24998 10.7181 3.514 10.718 3.78027C10.7179 4.04687 10.6649 4.31234 10.5627 4.55859C10.4607 4.80443 10.3106 5.02765 10.1223 5.21582L9.56567 5.77051C9.56156 5.77509 9.55835 5.78076 9.55396 5.78516C9.55016 5.78887 9.54518 5.7914 9.54126 5.79492L4.16235 11.1699C4.0826 11.2495 3.9742 11.2949 3.86157 11.2949L1.59204 11.2939C1.3572 11.2936 1.16712 11.1021 1.16724 10.8672V8.59863C1.16735 8.4859 1.21348 8.37755 1.29321 8.29785L7.2522 2.34277C7.44071 2.15449 7.66518 2.00519 7.91138 1.90332C8.15763 1.8015 8.42225 1.74891 8.68872 1.74902ZM9.07739 9.31445C8.99601 9.25956 8.84882 9.23342 8.6731 9.29004C8.5008 9.34558 8.36463 9.46189 8.30884 9.59766C8.1808 9.91 8.21934 10.5553 8.73657 11.1709C9.02522 10.9354 9.22516 10.6893 9.31274 10.5117C9.59374 9.94155 9.33799 9.49075 9.07739 9.31445ZM2.0188 8.77539L2.01782 10.4424L3.68579 10.4434L8.65063 5.48242L6.98267 3.81348L2.0188 8.77539ZM8.68872 2.60059C8.53396 2.60051 8.37959 2.63033 8.23657 2.68945C8.09366 2.7486 7.96321 2.83604 7.85376 2.94531L7.58521 3.21289L9.2522 4.88086L9.52173 4.61426C9.63109 4.50492 9.71734 4.37428 9.77661 4.23145C9.83585 4.0885 9.86638 3.93501 9.86646 3.78027C9.8665 3.6256 9.83667 3.47204 9.77759 3.3291C9.71847 3.18627 9.63092 3.0557 9.52173 2.94629C9.41245 2.83704 9.28163 2.75064 9.13892 2.69141C8.99616 2.63225 8.84324 2.60074 8.68872 2.60059Z" fill="#0B78CB"/>
</svg>
