<svg width="228" height="54" viewBox="0 0 228 54" fill="none" xmlns="http://www.w3.org/2000/svg">
<g clip-path="url(#clip0_9054_129030)">
<path d="M27.2907 44.6872H10.0918V41.1898H35.8965V33.5434H22.117V32.3525C20.7851 32.7035 19.3892 32.9041 17.9421 32.9041C16.495 32.9041 15.0991 32.7035 13.7673 32.3525V33.5434H0.000488281V41.1898H1.74214V46.8056C1.74214 48.2722 2.21598 49.6009 3.22767 50.6664C4.3034 51.8197 5.73771 52.3336 7.3513 52.3336H27.0858C26.1894 51.3433 25.6387 50.0522 25.6387 48.6232C25.6387 47.0939 26.2662 45.7025 27.2907 44.6872Z" fill="white"/>
<path d="M36.7384 48.6772C36.7384 51.0967 34.7689 53.0604 32.3423 53.0604C29.9157 53.0604 27.9463 51.0967 27.9463 48.6772C27.9463 46.2576 29.9157 44.2939 32.3423 44.2939C34.7689 44.2939 36.7384 46.2576 36.7384 48.6772Z" fill="#36C9FF"/>
<path d="M23.0644 16.7838C23.0644 19.5415 20.7849 21.7853 17.9547 21.7853C15.1245 21.7853 12.845 19.554 12.845 16.7838C12.845 14.0135 15.1245 11.7822 17.9547 11.7822C20.7849 11.7822 23.0644 14.0135 23.0644 16.7838Z" fill="white"/>
<path d="M119.961 22.9251C119.961 20.0169 121.651 17.4974 124.123 16.2439V4.37305H115.415V49.788H124.123V29.6064C121.651 28.3528 119.961 25.8333 119.961 22.9251Z" fill="white"/>
<path d="M127.644 27.9412C130.473 27.9412 132.767 25.6964 132.767 22.9272C132.767 20.158 130.473 17.9131 127.644 17.9131C124.815 17.9131 122.522 20.158 122.522 22.9272C122.522 25.6964 124.815 27.9412 127.644 27.9412Z" fill="#36C9FF"/>
<path d="M86.1136 4.37305V12.3078H102.787V13.5613C102.787 14.4889 102.723 15.4667 102.595 16.5071C102.467 17.5225 102.25 18.5503 101.929 19.6033C101.609 20.6186 101.199 21.634 100.687 22.6619C100.188 23.6145 99.5474 24.5422 98.7663 25.4196C97.1527 27.2121 95.2573 28.5283 93.0547 29.3682C91.0697 30.1078 89.6866 30.1078 87.0613 30.1078C86.882 30.1078 86.7027 30.1078 86.5106 30.1078H85.5374V38.5439H86.5106C90.2629 38.5439 93.7078 38.0425 96.8325 37.0397C100.021 36.0244 102.8 34.4199 105.157 32.2011V32.1886C107.577 29.8195 109.395 27.0492 110.612 23.8778C111.88 20.6688 112.495 16.833 112.495 12.3956V4.37305H86.1136Z" fill="white"/>
<path d="M17.9421 0.461914C8.95206 0.461914 1.66528 7.71978 1.66528 16.6824C1.66528 24.2035 6.81341 30.5087 13.78 32.3514C15.1119 32.7024 16.5078 32.9029 17.9549 32.9029C19.402 32.9029 20.7979 32.7024 22.1297 32.3514C29.0964 30.5087 34.2445 24.2035 34.2445 16.6824C34.2317 7.71978 26.9449 0.461914 17.9421 0.461914ZM9.54115 16.6824C9.54115 12.9093 11.9231 9.85076 15.1119 8.68499C16.0083 8.35907 16.956 8.17105 17.9421 8.17105C18.9282 8.17105 19.863 8.35907 20.7595 8.67245C22.3987 9.26161 23.8202 10.3522 24.8191 11.7812C25.7667 13.1475 26.343 14.8147 26.343 16.6574C26.343 21.4834 22.4499 25.1562 17.9421 25.1562C13.4343 25.1562 9.54115 21.4709 9.54115 16.6574V16.6824Z" fill="#36C9FF"/>
<path d="M64.7499 11.0673H68.5533V4.26074H40.4819V11.0673H44.3366V20.5565H40.4819V27.3631H69.0656V20.5565H64.7627V11.0673H64.7499ZM57.2966 20.5565H51.713V11.0673H57.2966V20.5565Z" fill="white"/>
<path d="M74.3287 4.26074V7.69538H69.4111V14.5145H74.3287V16.9589H69.4111V23.7655H74.3287V28.391H80.9496H81.6283H81.782V4.26074H74.3287Z" fill="white"/>
<path fill-rule="evenodd" clip-rule="evenodd" d="M63.5322 45.638C66.7722 45.638 69.6536 42.9805 69.6536 39.3955C69.6536 35.8104 66.7722 33.153 63.5322 33.153C60.2922 33.153 57.4108 35.8104 57.4108 39.3955C57.4108 42.9805 60.2922 45.638 63.5322 45.638ZM63.5322 53.999C71.6258 53.999 78.1826 47.4681 78.1826 39.3955C78.1826 31.3228 71.6258 24.792 63.5322 24.792C55.4387 24.792 48.8818 31.3228 48.8818 39.3955C48.8818 47.4681 55.4387 53.999 63.5322 53.999Z" fill="#36C9FF"/>
</g>
<rect x="140.269" y="4.59419" width="85.6887" height="45.2736" rx="22.6368" stroke="white" stroke-width="2.14151"/>
<path d="M182.321 29.0531H173.713V30.2953C175.646 30.4877 177.143 30.9436 178.205 31.663C179.268 32.3741 179.803 33.311 179.812 34.4738C179.812 35.3856 179.485 36.1594 178.833 36.7951C178.18 37.4393 177.243 37.9286 176.022 38.2632C174.809 38.5978 173.362 38.7651 171.681 38.7651C169.974 38.7651 168.506 38.5978 167.276 38.2632C166.055 37.9286 165.114 37.4393 164.453 36.7951C163.8 36.1594 163.474 35.3856 163.474 34.4738C163.483 33.2943 164.026 32.349 165.105 31.6379C166.193 30.9185 167.732 30.471 169.723 30.2953V29.0531H161.14V25.8659H182.321V29.0531ZM161.893 22.1768C163.759 22.0346 165.223 21.7293 166.285 21.2608C167.356 20.784 168.1 20.2277 168.518 19.5919H163.073V16.4299H180.389V19.5919H174.868C175.261 20.2277 175.997 20.784 177.076 21.2608C178.155 21.7293 179.661 22.0346 181.593 22.1768L180.213 25.3138C177.988 25.1381 176.169 24.6989 174.755 23.9963C173.341 23.2936 172.316 22.4027 171.681 21.3236C171.045 22.411 170.028 23.3061 168.631 24.0088C167.243 24.7031 165.44 25.1381 163.223 25.3138L161.893 22.1768ZM167.59 34.4738C167.573 34.9171 167.891 35.2434 168.544 35.4525C169.196 35.6533 170.242 35.7536 171.681 35.7536C173.078 35.7536 174.106 35.6491 174.767 35.44C175.437 35.2308 175.771 34.9088 175.771 34.4738C175.771 34.0388 175.445 33.7251 174.792 33.5327C174.14 33.3403 173.103 33.2357 171.681 33.219C170.217 33.2357 169.167 33.3403 168.531 33.5327C167.895 33.7167 167.582 34.0304 167.59 34.4738ZM204.581 29.1033H183.35V25.8659H204.581V29.1033ZM185.684 34.3985C185.684 33.4867 186.01 32.7087 186.663 32.0646C187.324 31.4204 188.269 30.9311 189.499 30.5965C190.728 30.2618 192.192 30.0987 193.89 30.1071C195.572 30.0987 197.019 30.2618 198.232 30.5965C199.453 30.9311 200.39 31.4204 201.043 32.0646C201.695 32.7087 202.021 33.4867 202.021 34.3985C202.021 35.3187 201.695 36.105 201.043 36.7575C200.39 37.41 199.457 37.9077 198.244 38.2507C197.031 38.5937 195.58 38.7651 193.89 38.7651C192.192 38.7651 190.728 38.5937 189.499 38.2507C188.269 37.9077 187.324 37.41 186.663 36.7575C186.01 36.105 185.684 35.3187 185.684 34.3985ZM185.86 15.9531H202.097V19.1402H189.85V21.449H202.197V24.6111H185.86V15.9531ZM189.8 34.3985C189.791 34.7247 189.925 34.984 190.201 35.1764C190.486 35.3688 190.925 35.5111 191.519 35.6031C192.121 35.6867 192.912 35.7286 193.89 35.7286C195.321 35.7286 196.358 35.6282 197.002 35.4274C197.655 35.2183 197.981 34.8753 197.981 34.3985C197.981 33.9551 197.651 33.6331 196.99 33.4323C196.329 33.2232 195.296 33.1186 193.89 33.1186C192.452 33.1186 191.406 33.2232 190.753 33.4323C190.101 33.6331 189.783 33.9551 189.8 34.3985Z" fill="white"/>
<defs>
<clipPath id="clip0_9054_129030">
<rect width="132.774" height="53.5377" fill="white" transform="translate(0 0.461914)"/>
</clipPath>
</defs>
</svg>
