<svg width="18" height="18" viewBox="0 0 18 18" fill="none" xmlns="http://www.w3.org/2000/svg">
<g clip-path="url(#clip0_12541_138688)">
<path d="M10.585 3.59985C10.5849 3.19571 10.2273 2.8125 9.71562 2.8125H8.28446C7.77277 2.8125 7.41517 3.19571 7.41508 3.59985C7.41508 4.87982 6.04538 5.69351 4.92118 5.08154L4.84501 5.04053C4.4105 4.804 3.86948 4.95626 3.63798 5.33423L2.92167 6.50317C2.70314 6.86005 2.81826 7.33231 3.23515 7.55933C4.3763 8.18052 4.3763 9.81948 3.23515 10.4407C2.81826 10.6677 2.70314 11.1399 2.92167 11.4968L3.63798 12.6658C3.86948 13.0437 4.4105 13.196 4.84501 12.9595L4.92118 12.9185C6.04538 12.3065 7.41508 13.1202 7.41508 14.4001C7.41517 14.8043 7.77277 15.1875 8.28446 15.1875H9.71562C10.2273 15.1875 10.5849 14.8043 10.585 14.4001C10.585 13.1202 11.9547 12.3065 13.0789 12.9185L13.1551 12.9595C13.5896 13.196 14.1306 13.0437 14.3621 12.6658L15.0784 11.4968C15.2969 11.14 15.1818 10.6677 14.7649 10.4407C13.6238 9.81949 13.6238 8.18052 14.7649 7.55933C15.1818 7.33231 15.2969 6.86005 15.0784 6.50317L14.3621 5.33423C14.1306 4.95627 13.5896 4.804 13.1551 5.04053L13.0789 5.08154C11.9547 5.69351 10.585 4.87983 10.585 3.59985ZM10.6875 9C10.6875 8.06802 9.93202 7.3125 9.00004 7.3125C8.06806 7.3125 7.31254 8.06802 7.31254 9C7.31254 9.93198 8.06806 10.6875 9.00004 10.6875C9.93202 10.6875 10.6875 9.93198 10.6875 9ZM11.8125 9C11.8125 10.5533 10.5533 11.8125 9.00004 11.8125C7.44674 11.8125 6.18754 10.5533 6.18754 9C6.18754 7.4467 7.44674 6.1875 9.00004 6.1875C10.5533 6.1875 11.8125 7.4467 11.8125 9ZM11.71 3.59985C11.71 4.02631 12.1667 4.2974 12.5413 4.09351L12.6175 4.05249C13.5526 3.54353 14.7623 3.83349 15.3216 4.74683L16.0379 5.91577C16.6101 6.85024 16.2552 8.02951 15.3025 8.5481C14.9447 8.74323 14.9447 9.25677 15.3025 9.4519C16.2552 9.97049 16.6101 11.1498 16.0379 12.0842L15.3216 13.2532C14.7623 14.1665 13.5526 14.4565 12.6175 13.9475L12.5413 13.9065C12.1667 13.7026 11.71 13.9737 11.71 14.4001C11.7099 15.487 10.7854 16.3125 9.71562 16.3125H8.28446C7.21472 16.3125 6.29016 15.487 6.29008 14.4001C6.29008 13.9737 5.83333 13.7026 5.45878 13.9065L5.38261 13.9475C4.4475 14.4565 3.23778 14.1665 2.67851 13.2532L1.9622 12.0842C1.39003 11.1498 1.7449 9.97049 2.69755 9.4519C3.05536 9.25677 3.05536 8.74323 2.69755 8.5481C1.7449 8.02951 1.39003 6.85024 1.9622 5.91577L2.67851 4.74683C3.23778 3.83349 4.4475 3.54352 5.38261 4.05249L5.45878 4.09351C5.83333 4.29739 6.29008 4.0263 6.29008 3.59985C6.29016 2.51296 7.21472 1.6875 8.28446 1.6875H9.71562C10.7854 1.6875 11.7099 2.51296 11.71 3.59985Z" fill="#6D7882"/>
</g>
<defs>
<clipPath id="clip0_12541_138688">
<rect width="18" height="18" fill="white"/>
</clipPath>
</defs>
</svg>
