<svg width="18" height="18" viewBox="0 0 18 18" fill="none" xmlns="http://www.w3.org/2000/svg">
<g clip-path="url(#clip0_12541_138689)">
<path d="M4.85571 2.03711C6.12149 1.19341 7.78259 1.96704 8.02954 3.3877H10.5002C11.6391 3.38781 12.5625 4.31138 12.5627 5.4502C12.5626 5.76069 12.3107 6.01258 12.0002 6.0127C11.6897 6.0127 11.4379 5.76076 11.4377 5.4502C11.4375 4.9327 11.0178 4.51281 10.5002 4.5127H8.06274V13.8877H10.5002C11.0178 13.8876 11.4376 13.4678 11.4377 12.9502C11.438 12.6397 11.6897 12.3877 12.0002 12.3877C12.3107 12.3878 12.5625 12.6398 12.5627 12.9502C12.5626 14.0891 11.6392 15.0126 10.5002 15.0127H8.02954C7.7826 16.4334 6.12152 17.2072 4.85571 16.3633L3.35571 15.3643C2.78203 14.9818 2.43783 14.3369 2.43774 13.6475V4.75293C2.43789 4.06357 2.78216 3.41957 3.35571 3.03711L4.85571 2.03711ZM6.93774 3.75293C6.9375 3.00441 6.10265 2.55754 5.47974 2.97266L3.97974 3.97363C3.71929 4.14746 3.56289 4.4398 3.56274 4.75293V13.6475C3.56283 13.9607 3.71917 14.2539 3.97974 14.4277L5.47974 15.4277C6.10276 15.8431 6.93774 15.3962 6.93774 14.6475V3.75293ZM13.1018 7.10254C13.3215 6.88289 13.678 6.88294 13.8977 7.10254L14.8674 8.07227C15.3799 8.58481 15.3799 9.41616 14.8674 9.92871L13.8977 10.8984C13.678 11.1181 13.3215 11.1181 13.1018 10.8984C12.8822 10.6788 12.8822 10.3222 13.1018 10.1025L13.6409 9.56348H9.75024C9.43968 9.56348 9.1879 9.3115 9.18774 9.00098C9.18774 8.69032 9.43958 8.43848 9.75024 8.43848H13.6418L13.1018 7.89844C12.8822 7.67878 12.8822 7.32219 13.1018 7.10254Z" fill="#6D7882"/>
</g>
<defs>
<clipPath id="clip0_12541_138689">
<rect width="18" height="18" fill="white"/>
</clipPath>
</defs>
</svg>
