<svg width="126" height="32" viewBox="0 0 126 32" fill="none" xmlns="http://www.w3.org/2000/svg">
<path d="M16.1069 26.4341H5.95601V24.3437H21.1861V19.7733H13.0533V19.0615C12.2673 19.2713 11.4434 19.3912 10.5893 19.3912C9.7352 19.3912 8.91133 19.2713 8.12526 19.0615V19.7733H0V24.3437H1.02794V27.7004C1.02794 28.577 1.3076 29.3712 1.90471 30.0081C2.53962 30.6974 3.38616 31.0046 4.33851 31.0046H15.986C15.4569 30.4127 15.1319 29.6409 15.1319 28.7868C15.1319 27.8727 15.5022 27.041 16.1069 26.4341Z" fill="white"/>
<path d="M21.6833 28.8191C21.6833 30.2653 20.5209 31.4391 19.0887 31.4391C17.6565 31.4391 16.4941 30.2653 16.4941 28.8191C16.4941 27.3729 17.6565 26.1992 19.0887 26.1992C20.5209 26.1992 21.6833 27.3729 21.6833 28.8191Z" fill="white"/>
<path d="M13.6126 9.75611C13.6126 11.4045 12.2673 12.7456 10.5969 12.7456C8.92645 12.7456 7.58105 11.4119 7.58105 9.75611C7.58105 8.10027 8.92645 6.7666 10.5969 6.7666C12.2673 6.7666 13.6126 8.10027 13.6126 9.75611Z" fill="white"/>
<path d="M70.8021 13.4268C70.8021 11.6885 71.7998 10.1825 73.2586 9.43328V2.33789H68.1189V29.4832H73.2586V17.4203C71.7998 16.671 70.8021 15.165 70.8021 13.4268Z" fill="white"/>
<path d="M75.3368 16.4247C77.0066 16.4247 78.3602 15.0829 78.3602 13.4277C78.3602 11.7725 77.0066 10.4307 75.3368 10.4307C73.6671 10.4307 72.3135 11.7725 72.3135 13.4277C72.3135 15.0829 73.6671 16.4247 75.3368 16.4247Z" fill="white"/>
<path d="M50.825 2.33789V7.08064H60.666V7.82989C60.666 8.38433 60.6282 8.96875 60.5526 9.59063C60.477 10.1975 60.3486 10.8119 60.1596 11.4413C59.9706 12.0482 59.7288 12.6551 59.4264 13.2694C59.1317 13.8389 58.7537 14.3933 58.2927 14.9178C57.3403 15.9892 56.2217 16.7759 54.9216 17.2779C53.7501 17.72 52.9338 17.72 51.3843 17.72C51.2785 17.72 51.1727 17.72 51.0593 17.72H50.4849V22.7624H51.0593C53.2739 22.7624 55.3071 22.4627 57.1514 21.8633C59.0334 21.2564 60.6736 20.2974 62.0643 18.9712V18.9637C63.4928 17.5477 64.5661 15.8918 65.2842 13.9962C66.0325 12.0781 66.3953 9.78543 66.3953 7.13309V2.33789H50.825Z" fill="white"/>
<path d="M10.5899 0C5.28387 0 0.983154 4.33815 0.983154 9.69529C0.983154 14.1908 4.02162 17.9595 8.13338 19.0609C8.91945 19.2707 9.74332 19.3906 10.5974 19.3906C11.4515 19.3906 12.2754 19.2707 13.0614 19.0609C17.1732 17.9595 20.2117 14.1908 20.2117 9.69529C20.2041 4.33815 15.9034 0 10.5899 0ZM5.63156 9.69529C5.63156 7.44005 7.03742 5.61188 8.91945 4.91508C9.44854 4.72027 10.0079 4.60788 10.5899 4.60788C11.1719 4.60788 11.7236 4.72027 12.2527 4.90758C13.2202 5.25973 14.0592 5.91158 14.6487 6.76572C15.208 7.5824 15.5482 8.5789 15.5482 9.6803C15.5482 12.5649 13.2504 14.7602 10.5899 14.7602C7.92931 14.7602 5.63156 12.5574 5.63156 9.6803V9.69529Z" fill="white"/>
<path d="M38.216 6.33893H40.4608V2.27051H23.8928V6.33893H26.1679V12.0108H23.8928V16.0792H40.7631V12.0108H38.2235V6.33893H38.216ZM33.817 12.0108H30.5215V6.33893H33.817V12.0108Z" fill="white"/>
<path d="M43.8695 2.27051V4.32345H40.967V8.39937H43.8695V9.86041H40.967V13.9288H43.8695V16.6936H47.7771H48.1777H48.2684V2.27051H43.8695Z" fill="white"/>
<path fill-rule="evenodd" clip-rule="evenodd" d="M37.4971 27.003C39.4094 27.003 41.11 25.4146 41.11 23.2717C41.11 21.1289 39.4094 19.5405 37.4971 19.5405C35.5849 19.5405 33.8842 21.1289 33.8842 23.2717C33.8842 25.4146 35.5849 27.003 37.4971 27.003ZM37.4971 32.0005C42.274 32.0005 46.1439 28.0969 46.1439 23.2717C46.1439 18.4466 42.274 14.543 37.4971 14.543C32.7202 14.543 28.8503 18.4466 28.8503 23.2717C28.8503 28.0969 32.7202 32.0005 37.4971 32.0005Z" fill="white"/>
<path d="M111.571 1.33301C119.526 1.33301 126 7.9134 126 16C126 24.0866 119.526 30.667 111.571 30.667H96.814C88.8587 30.6667 82.3853 24.0865 82.3853 16C82.3853 7.91355 88.8587 1.33326 96.814 1.33301H111.571ZM96.814 3.33301C89.9441 3.33326 84.353 9.01688 84.353 16C84.353 22.9831 89.9441 28.6667 96.814 28.667H111.571C118.441 28.667 124.033 22.9833 124.033 16C124.033 9.01672 118.441 3.33301 111.571 3.33301H96.814ZM102.462 14.7588C102.962 14.7146 103.65 14.9056 103.677 15.7295C103.704 16.4947 103.192 16.8482 102.719 16.9365C102.058 17.0248 100.654 17.0986 99.0884 17.1133V17.54C101.14 17.6725 102.895 18.2318 102.895 20.042C102.895 22.1904 100.452 22.5732 97.9556 22.5732C95.4588 22.5732 93.0153 22.1905 93.0151 20.042C93.0151 18.2318 94.7704 17.6725 96.8218 17.54V17.1133C95.3102 17.1133 93.9197 17.0543 93.1909 16.9365C92.6781 16.8482 92.1654 16.5097 92.2329 15.6855C92.287 14.9645 92.9754 14.7146 93.4478 14.7588C95.5532 14.9795 100.397 15.0236 102.462 14.7588ZM110.108 17.5107C112.605 17.5107 115.048 17.9081 115.048 20.042C115.048 22.1905 112.605 22.5732 110.108 22.5732C107.611 22.5732 105.169 22.1904 105.168 20.042C105.168 17.8935 107.611 17.5108 110.108 17.5107ZM97.9419 19.6006C96.0929 19.6006 95.2827 19.6887 95.2827 20.0566C95.2829 20.3951 96.1066 20.498 97.9419 20.498C99.777 20.498 100.627 20.4098 100.627 20.0566C100.627 19.6593 99.7906 19.6006 97.9419 19.6006ZM110.095 19.6006C108.246 19.6006 107.436 19.6887 107.436 20.0566C107.436 20.3951 108.26 20.498 110.095 20.498C111.93 20.498 112.781 20.4097 112.781 20.0566C112.781 19.6593 111.944 19.6006 110.095 19.6006ZM114.616 14.8174C115.115 14.7732 115.79 14.9061 115.831 15.7891C115.871 16.6128 115.345 16.9068 114.873 16.9951C113.267 17.2159 107.207 17.2747 105.344 16.9951C104.831 16.9068 104.319 16.5683 104.386 15.7441C104.454 14.9351 105.129 14.7732 105.601 14.8174C107.707 15.0381 112.551 15.0822 114.616 14.8174ZM113.711 9.24023C114.103 9.24023 114.562 9.62231 114.562 10.2256C114.562 10.829 114.211 11.2559 113.711 11.2559H107.881C107.72 11.2559 107.638 11.3735 107.638 11.5498V11.9922C107.652 12.1685 107.733 12.2567 107.909 12.3008C108.529 12.4038 109.595 12.4775 110.418 12.4775C111.525 12.4775 112.659 12.3012 113.604 12.0068C114.09 11.8597 114.683 11.9918 114.845 12.5947C114.994 13.154 114.751 13.6543 114.319 13.8604C113.212 14.3901 111.58 14.5087 110.325 14.5234C109.07 14.5234 107.355 14.3902 106.559 14.0518C106.168 13.8752 105.641 13.4484 105.52 12.7861C105.372 12.0356 105.412 10.917 105.493 10.2695C105.574 9.71071 106.14 9.24065 106.504 9.24023H113.711ZM101.855 9.24023C102.26 9.24023 102.692 9.71044 102.692 10.2842C102.692 10.7845 102.354 11.3594 101.855 11.3594H98.6167C97.9958 13.184 95.9982 14.3165 94.2573 14.4932C93.7715 14.5373 93.0834 14.3169 93.0024 13.5811C92.935 12.9483 93.2587 12.433 93.812 12.3447C94.8375 12.1975 95.6071 11.8744 96.0659 11.3594H94.0005C93.5284 11.3592 93.2184 10.8 93.2183 10.2998C93.2183 9.79952 93.5283 9.24042 94.0005 9.24023H101.855ZM98.8862 12.2568C99.183 11.5507 99.871 11.5064 100.208 11.624L102.355 12.3301C102.746 12.4626 103.138 13.0514 102.868 13.7725C102.611 14.4789 101.869 14.5083 101.558 14.4053L99.4263 13.7285C99.1159 13.6255 98.5895 13.022 98.8862 12.2568Z" fill="white"/>
</svg>
