<svg width="20" height="20" viewBox="0 0 20 20" fill="none" xmlns="http://www.w3.org/2000/svg">
<path d="M17.4995 13.332C17.4995 14.2524 16.7538 14.9988 15.8335 14.999H10.6245V18.332C10.6245 18.6772 10.3447 18.957 9.99951 18.957C9.65445 18.9569 9.37451 18.6771 9.37451 18.332V14.999H4.1665C3.24603 14.999 2.49951 14.2525 2.49951 13.332V5.41602H17.4995V13.332ZM13.6548 7.79688C13.3589 7.61932 12.975 7.71491 12.7974 8.01074L11.895 9.51367C11.587 10.027 10.8618 10.0759 10.4878 9.6084C9.56969 8.461 7.78899 8.58091 7.03271 9.84082L6.13037 11.3438C5.95278 11.6397 6.04923 12.0246 6.34521 12.2021C6.64114 12.3794 7.02513 12.2831 7.20264 11.9873L8.104 10.4844C8.41198 9.97108 9.1372 9.92235 9.51123 10.3896C10.4294 11.5373 12.2111 11.4175 12.9673 10.1572L13.8687 8.6543C14.0462 8.3584 13.9506 7.97454 13.6548 7.79688ZM17.0835 1.66602C17.7737 1.66624 18.3335 2.2258 18.3335 2.91602C18.3333 3.60609 17.7736 4.1658 17.0835 4.16602H2.9165C2.22626 4.16602 1.66668 3.60622 1.6665 2.91602C1.6665 2.22566 2.22615 1.66602 2.9165 1.66602H17.0835Z" fill="white"/>
</svg>
