<svg width="20" height="20" viewBox="0 0 20 20" fill="none" xmlns="http://www.w3.org/2000/svg">
<path d="M15.5 12.3811V14.5186C15.5 14.9289 15.4192 15.3353 15.2621 15.7144C15.1051 16.0936 14.8749 16.4381 14.5847 16.7283C14.2945 17.0184 13.95 17.2486 13.5709 17.4057C13.1917 17.5627 12.7854 17.6436 12.375 17.6436H7.375C6.5462 17.6436 5.75134 17.3143 5.16529 16.7283C4.57924 16.1422 4.25 15.3474 4.25 14.5186V12.2373L5.5 12.9623L8.25 14.5686C8.78207 14.8757 9.38562 15.0375 10 15.0375C10.6144 15.0375 11.2179 14.8757 11.75 14.5686L14.25 13.1123L15.5 12.3811Z" fill="white"/>
<path d="M18.6251 7.82985C18.625 8.22078 18.5207 8.60462 18.3229 8.94187C18.1252 9.27911 17.8412 9.55757 17.5001 9.7486L11.0939 13.4986C10.7537 13.695 10.3679 13.7984 9.9751 13.7984C9.58234 13.7984 9.1965 13.695 8.85635 13.4986L2.5001 9.7486C2.16566 9.55224 1.88835 9.27189 1.69566 8.93532C1.50298 8.59875 1.40161 8.21767 1.40161 7.82985C1.40161 7.44203 1.50298 7.06094 1.69566 6.72437C1.88835 6.38781 2.16566 6.10745 2.5001 5.9111L8.90635 2.1611C9.2465 1.96471 9.63234 1.86133 10.0251 1.86133C10.4179 1.86133 10.8037 1.96471 11.1439 2.1611L17.5001 5.9111C17.8408 6.10262 18.1244 6.3812 18.3221 6.71833C18.5198 7.05546 18.6243 7.43904 18.6251 7.82985Z" fill="white"/>
<path d="M18.625 14.5176C18.625 14.8491 18.4933 15.167 18.2589 15.4015C18.0245 15.6359 17.7065 15.7676 17.375 15.7676C17.0435 15.7676 16.7255 15.6359 16.4911 15.4015C16.2567 15.167 16.125 14.8491 16.125 14.5176C16.1263 14.2994 16.1847 14.0854 16.2943 13.8968C16.404 13.7083 16.5611 13.5516 16.75 13.4426V11.6488L18 10.9238V13.4238C18.1917 13.5345 18.3505 13.694 18.4604 13.8862C18.5702 14.0784 18.627 14.2963 18.625 14.5176V14.5176Z" fill="white"/>
</svg>
