<svg width="20" height="20" viewBox="0 0 20 20" fill="none" xmlns="http://www.w3.org/2000/svg">
<path d="M10.5648 16.6308C10.7937 16.6841 10.8147 16.9839 10.5917 17.0583V17.0583L9.27504 17.4916C5.96671 18.5583 4.22504 17.6666 3.15004 14.3583L2.08337 11.0666C1.01671 7.75827 1.90004 6.00827 5.20837 4.9416L5.64504 4.79699C5.98076 4.68581 6.30748 5.02253 6.21215 5.36309C6.1649 5.5319 6.11944 5.70807 6.07504 5.8916L5.25837 9.38327C4.34171 13.3083 5.68337 15.4749 9.60837 16.4083L10.5648 16.6308Z" fill="white"/>
<path d="M14.3083 2.67444L12.9167 2.34944C10.1333 1.6911 8.47499 2.23277 7.49999 4.24944C7.24999 4.75777 7.04999 5.37444 6.88332 6.08277L6.06665 9.57444C5.24999 13.0578 6.32499 14.7744 9.79999 15.5994L11.2 15.9328C11.6833 16.0494 12.1333 16.1244 12.55 16.1578C15.15 16.4078 16.5333 15.1911 17.2333 12.1828L18.05 8.69944C18.8667 5.2161 17.8 3.4911 14.3083 2.67444ZM12.7417 11.1078C12.6667 11.3911 12.4167 11.5744 12.1333 11.5744C12.0833 11.5744 12.0333 11.5661 11.975 11.5578L9.54999 10.9411C9.21665 10.8578 9.01665 10.5161 9.09999 10.1828C9.18332 9.84944 9.52499 9.64944 9.85832 9.73277L12.2833 10.3494C12.625 10.4328 12.825 10.7744 12.7417 11.1078ZM15.1833 8.2911C15.1083 8.57444 14.8583 8.75777 14.575 8.75777C14.525 8.75777 14.475 8.74944 14.4167 8.7411L10.375 7.7161C10.0417 7.63277 9.84165 7.2911 9.92499 6.95777C10.0083 6.62444 10.35 6.42444 10.6833 6.50777L14.725 7.53277C15.0667 7.60777 15.2667 7.94944 15.1833 8.2911Z" fill="white"/>
</svg>
