<svg width="20" height="20" viewBox="0 0 20 20" fill="none" xmlns="http://www.w3.org/2000/svg">
<g clip-path="url(#clip0_12541_138686)">
<path fill-rule="evenodd" clip-rule="evenodd" d="M5 1.875C3.27411 1.875 1.875 3.27411 1.875 5V15C1.875 16.5303 2.97495 17.8037 4.42735 18.0726C4.39297 17.887 4.375 17.6956 4.375 17.5V13.75C4.375 12.0241 5.77411 10.625 7.5 10.625H12.5C14.2259 10.625 15.625 12.0241 15.625 13.75V17.5C15.625 17.6956 15.607 17.887 15.5726 18.0726C17.025 17.8037 18.125 16.5303 18.125 15V7.28553C18.125 6.45673 17.7958 5.66188 17.2097 5.07583L14.9242 2.79029C14.3381 2.20424 13.5433 1.875 12.7145 1.875H5ZM12.5 5.625L7.5 5.625C7.15482 5.625 6.875 5.90482 6.875 6.25C6.875 6.59518 7.15482 6.875 7.5 6.875L12.5 6.875C12.8452 6.875 13.125 6.59518 13.125 6.25C13.125 5.90482 12.8452 5.625 12.5 5.625Z" fill="white"/>
<path d="M14.375 18.125V13.75C14.375 12.7145 13.5355 11.875 12.5 11.875H7.5C6.46447 11.875 5.625 12.7145 5.625 13.75V18.125H14.375Z" fill="white"/>
</g>
<defs>
<clipPath id="clip0_12541_138686">
<rect width="20" height="20" fill="white"/>
</clipPath>
</defs>
</svg>
