<svg width="102" height="69" viewBox="0 0 102 69" fill="none" xmlns="http://www.w3.org/2000/svg">
<path d="M33.1645 56.3214C39.2127 55.5352 55.6598 57.057 60.9402 59.5941C65.0576 61.5694 68.6269 64.1143 72.9654 65.6036C78.9799 67.6753 89.0726 63.5583 92.6658 58.0438C100.389 46.1832 93.7145 34.7027 86.308 23.4127C71.6901 1.14264 21.5773 -4.46095 9.17231 22.3736C1.75451 38.4217 9.85631 57.4077 29.1203 55.9549C29.6278 55.9123 32.6531 56.3908 33.1645 56.3214Z" fill="url(#paint0_linear_12491_138235)"/>
<path d="M60.7566 60.5579H34.7238L34.2617 61.5501C33.0687 64.1265 35.9688 66.2344 32.9793 66.2344H23.7799C20.7904 66.2344 18.3479 63.9348 18.3479 61.1243L18.3479 33.2318C18.3479 30.4212 20.7904 28.1217 23.7799 28.1217H60.7566C63.7414 28.1217 66.1886 30.4212 66.1886 33.2318V55.4478C66.1886 58.2584 63.7461 60.5579 60.7566 60.5579Z" fill="#E6A647"/>
<path d="M62.7273 32.3687H36.6945L36.2324 31.2555C35.0394 28.365 31.6209 26 28.6314 26H19.432C16.4425 26 14 28.58 14 31.7333L14 63.0273C14 66.1806 16.4425 68.7606 19.432 68.7606H62.7273C65.7121 68.7606 68.1593 66.1806 68.1593 63.0273V38.102C68.1593 34.9487 65.7168 32.3687 62.7273 32.3687Z" fill="#FFC82E"/>
<g style="mix-blend-mode:multiply" opacity="0.1">
<path d="M100.267 17.461C99.0255 15.0137 96.7441 13.1069 94.0188 12.219C92.2037 11.6316 90.3072 11.5551 88.5746 11.9613C86.8487 9.27418 84.0883 7.13488 81.3256 6.47309C78.7867 5.85959 76.2824 6.86683 75.3295 7.3261C75.3023 7.33582 73.7738 8.2166 72.502 9.38735C68.4897 7.68903 64.3978 8.54695 61.5048 11.8204C59.3137 14.2925 58.5021 17.9299 59.2891 21.1902C57.0086 23.1562 55.4983 26.0515 55.2205 29.1103C55.0162 31.367 55.5137 33.4887 56.6254 35.075C58.6667 37.9936 62.204 38.6353 64.7927 38.7867C65.9865 42.7058 69.2736 45.9677 73.1982 46.9028C73.5555 46.9878 73.915 47.0534 74.283 47.1002C77.8148 47.5499 81.491 46.1772 83.9257 43.5711C86.3233 44.8264 88.9967 45.2855 91.5202 44.8283C95.0374 44.2007 98.0963 41.6939 99.3168 38.4516C100.353 35.707 100.017 32.5701 98.5707 30.1429C101.517 26.7377 102.332 21.491 100.281 17.4496L100.267 17.461Z" fill="#272425"/>
</g>
<path d="M99.1328 15.9944C97.8915 13.5471 95.6101 11.6403 92.8848 10.7523C91.0697 10.165 89.1732 10.0885 87.4407 10.4947C85.714 7.81406 82.9536 5.67476 80.1909 5.01297C77.652 4.39947 75.1477 5.40671 74.1949 5.86597C74.1676 5.8757 72.6391 6.75648 71.3673 7.92723C67.355 6.22891 63.2631 7.08683 60.3702 10.3603C58.179 12.8324 57.3675 16.4698 58.1545 19.7301C55.8739 21.6961 54.3571 24.5905 54.0801 27.6428C53.8758 29.8995 54.3733 32.0212 55.485 33.6075C57.5263 36.5261 61.0636 37.1678 63.6523 37.3192C64.846 41.2383 68.1332 44.5002 72.0577 45.4353C72.4151 45.5203 72.7746 45.5859 73.1426 45.6327C76.6744 46.0824 80.3506 44.7097 82.7853 42.1036C85.1829 43.3589 87.8562 43.818 90.3798 43.3608C93.8969 42.7332 96.9559 40.2264 98.1764 36.9841C99.2122 34.2395 98.8766 31.1027 97.4303 28.6754C100.377 25.2703 101.192 20.0236 99.1407 15.9822L99.1328 15.9944Z" fill="white"/>
<path d="M62.0767 11.904C60.0495 14.1923 59.5442 17.7826 60.8422 20.6129C58.3363 22.1212 56.615 24.9102 56.3456 27.8907C56.2064 29.4232 56.4568 31.0449 57.3353 32.3045C59.0757 34.7954 62.523 35.0562 65.4928 35.0714C65.9109 38.898 68.8856 42.3244 72.5415 43.1988C76.2038 44.0741 80.2805 42.3237 82.2108 39.0534C84.4113 40.7386 87.2589 41.5827 89.9421 41.0997C92.6253 40.6167 95.0666 38.7374 96.0475 36.1378C97.0284 33.5382 96.3842 30.2897 94.3281 28.4183C97.7154 25.9602 99.0542 20.8334 97.1106 17.0105C95.1671 13.1876 90.0568 11.3562 86.3866 13.343C85.2731 10.6219 82.5339 7.92472 79.701 7.24744C78.2465 6.89735 76.4998 7.31487 75.1953 7.94041C74.8779 8.09132 71.6126 10.5716 71.9745 10.7958C68.6437 8.72917 64.8422 8.77955 62.0767 11.904Z" fill="#5584F0"/>
<path d="M88.4897 22.2268L76.2804 16.8833L77.003 20.7423C77.003 20.7423 68.6973 22.6957 71.9994 35.0094C71.9994 35.0094 73.8399 28.8683 78.3567 27.9713L79.0854 31.8627L88.4897 22.2268Z" fill="white"/>
<rect x="22.1975" y="47.9531" width="25" height="5" rx="2.5" fill="white"/>
<rect x="22.1975" y="55.9531" width="30" height="5" rx="2.5" fill="white"/>
<rect width="39" height="19" rx="9.5" fill="#F07573"/>
<path d="M14.4941 5.92969V13H13.2246L10.1191 8.50781H10.0605V13H8.5957V5.92969H9.88477L12.9707 10.4219H13.0391V5.92969H14.4941ZM15.6855 13V5.92969H20.4316V7.14062H17.1504V8.85938H20.1875V10.0703H17.1504V11.7891H20.4414V13H15.6855ZM23.2637 13L21.1348 5.92969H22.7363L24.0059 10.8809H24.0742L25.2852 6.80859H26.6719L27.8828 10.8809H27.9414L29.2109 5.92969H30.8125L28.6836 13H27.3164L26.0078 8.94727H25.9492L24.6406 13H23.2637Z" fill="white"/>
<defs>
<linearGradient id="paint0_linear_12491_138235" x1="22.115" y1="12.0842" x2="84.9608" y2="62.7893" gradientUnits="userSpaceOnUse">
<stop stop-color="#F0E8A4"/>
<stop offset="1" stop-color="#C7E7F0"/>
</linearGradient>
</defs>
</svg>
