<svg width="24" height="24" viewBox="0 0 24 24" fill="none" xmlns="http://www.w3.org/2000/svg">
<path d="M15.8047 3.33496H3.19525C1.43056 3.33496 0 4.77799 0 6.55805V19.2774C0 21.0575 1.43056 22.5005 3.19525 22.5005H15.8047C17.5694 22.5005 19 21.0575 19 19.2774V6.55805C19 4.77799 17.5694 3.33496 15.8047 3.33496Z" fill="#33A3FF"/>
<path d="M12.8844 1.5H6.11781C5.53484 1.5 5.06226 1.97671 5.06226 2.56475V4.42363C5.06226 5.01168 5.53484 5.48838 6.11781 5.48838H12.8844C13.4673 5.48838 13.9399 5.01168 13.9399 4.42363V2.56475C13.9399 1.97671 13.4673 1.5 12.8844 1.5Z" fill="#6CC0EF"/>
<path d="M19.2754 4.94452C19.8669 4.35313 20.8275 4.35312 21.4189 4.94452L23.5576 7.08417C24.1491 7.67569 24.1491 8.6362 23.5576 9.22772L22.4863 10.299L19.3867 7.1994L22.4844 10.298L15.0723 17.7101L13.748 17.9162L13.749 17.9172L10 18.5002L10.79 13.4299L19.2754 4.94452Z" fill="#A6DBFF"/>
</svg>
