<svg width="24" height="24" viewBox="0 0 24 24" fill="none" xmlns="http://www.w3.org/2000/svg">
<g clip-path="url(#clip0_12541_138679)">
<path d="M3.72492 1.5H16.4669C18.5211 1.5 20.1918 3.23513 20.1918 5.3745V18.6281C20.1918 20.7649 18.5237 22.5026 16.4669 22.5026H3.72492C1.67066 22.5026 0 20.7675 0 18.6281V5.3745C0 3.23513 1.66814 1.5 3.72492 1.5Z" fill="#FF6C61"/>
<path d="M14.5943 17.5808C14.5943 17.5808 14.5767 17.5808 14.5691 17.5808C14.2082 17.5729 13.87 17.4049 13.6353 17.1214L9.30473 11.8478C8.85299 11.2965 8.91356 10.467 9.44353 9.99715C9.9735 9.52728 10.771 9.5929 11.2227 10.1415L14.6347 14.2943L21.8145 6.2539C22.289 5.72365 23.0864 5.69215 23.5987 6.18565C24.1085 6.67915 24.1388 7.50865 23.6643 8.04153L15.5205 17.1608C15.2808 17.4285 14.9476 17.5808 14.5968 17.5808H14.5943Z" fill="#FFB8B6"/>
</g>
<defs>
<clipPath id="clip0_12541_138679">
<rect width="24" height="24" fill="white"/>
</clipPath>
</defs>
</svg>
